<?xml version="1.0" standalone="no"?>
<!DOCTYPE svg PUBLIC "-//W3C//DTD SVG 20010904//EN"
 "http://www.w3.org/TR/2001/REC-SVG-20010904/DTD/svg10.dtd">
<svg version="1.0" xmlns="http://www.w3.org/2000/svg"
 width="128.000000pt" height="128.000000pt" viewBox="0 0 128.000000 128.000000"
 preserveAspectRatio="xMidYMid meet">

<g transform="translate(0.000000,128.000000) scale(0.100000,-0.100000)"
fill="#fff" stroke="none">
<path d="M487 1130 c-50 -39 -42 -117 15 -146 60 -31 128 13 128 83 0 71 -85
109 -143 63z"/>
<path d="M676 947 l-47 -133 14 -83 14 -82 -55 -25 c-68 -30 -74 -30 -61 0 9
20 5 41 -20 119 -30 89 -33 94 -56 89 -30 -5 -30 -5 -9 -103 l17 -75 -42 -80
c-27 -51 -40 -87 -36 -101 7 -31 97 -184 161 -275 49 -68 58 -77 75 -68 10 6
19 14 19 19 0 4 -32 64 -70 132 -39 68 -69 128 -67 133 4 13 196 93 292 121
l79 24 85 -69 85 -69 28 32 c15 18 27 35 28 38 0 11 -198 169 -212 169 -7 0
-40 -9 -73 -19 -43 -14 -62 -16 -66 -7 -4 6 -12 49 -19 96 l-12 85 41 113 c23
63 41 116 41 118 0 4 -26 15 -66 28 -20 6 -25 -4 -68 -127z"/>
<path d="M866 998 c-9 -34 -8 -38 9 -38 31 0 119 -53 166 -100 42 -42 47 -45
33 -18 -23 45 -93 117 -143 150 -54 34 -57 34 -65 6z"/>
<path d="M235 612 c-97 -19 -81 -172 18 -172 54 0 87 32 87 84 0 60 -47 100
-105 88z"/>
</g>
</svg>
