<?xml version="1.0" standalone="no"?>
<!DOCTYPE svg PUBLIC "-//W3C//DTD SVG 20010904//EN"
 "http://www.w3.org/TR/2001/REC-SVG-20010904/DTD/svg10.dtd">
<svg version="1.0" xmlns="http://www.w3.org/2000/svg"
 width="2000.000000pt" height="1668.000000pt" viewBox="0 0 2000.000000 1668.000000"
 preserveAspectRatio="xMidYMid meet">

<g transform="translate(0.000000,1668.000000) scale(0.100000,-0.100000)"
fill="#000000" stroke="none">
<path d="M5070 15945 l0 -245 -245 0 -245 0 0 -4930 0 -4930 4930 0 4930 0 0
245 0 245 245 0 245 0 0 4930 0 4930 -4930 0 -4930 0 0 -245z m4385 -699 c381
-122 582 -532 445 -907 -73 -202 -235 -356 -445 -426 -70 -23 -96 -27 -210
-27 -114 0 -140 4 -210 27 -266 88 -450 311 -484 586 -39 312 155 630 449 737
145 52 314 56 455 10z m1540 -647 c187 -66 341 -122 342 -123 2 -2 -146 -421
-328 -932 -182 -511 -331 -938 -331 -949 0 -21 242 -1428 247 -1433 2 -2 227
63 500 143 489 145 497 147 578 143 62 -3 95 -10 137 -29 70 -34 1543 -1246
1536 -1265 -3 -7 -107 -137 -232 -289 -201 -243 -229 -274 -243 -262 -87 74
-1274 1049 -1288 1057 -15 10 -133 -22 -618 -165 -330 -98 -609 -183 -620
-190 -11 -7 -403 -171 -870 -365 -468 -194 -851 -354 -852 -355 -10 -6 432
-809 762 -1385 219 -382 404 -704 412 -716 12 -19 5 -26 -159 -128 -114 -71
-177 -105 -185 -99 -7 4 -225 312 -484 683 l-472 675 -330 590 c-182 325 -343
613 -358 640 -41 75 -60 157 -61 265 0 111 29 217 85 309 19 31 147 263 285
516 l250 460 -138 665 c-76 365 -137 666 -136 667 9 10 392 110 397 105 3 -4
115 -326 247 -715 257 -752 259 -761 228 -849 -7 -20 -48 -101 -90 -179 -43
-77 -76 -142 -74 -144 3 -2 998 411 1002 417 2 2 -46 282 -106 623 -83 472
-108 633 -104 675 4 38 110 351 341 1000 406 1141 376 1060 384 1060 4 0 160
-54 346 -121z m997 -392 c293 -149 549 -338 809 -597 251 -249 417 -469 573
-755 64 -118 171 -353 164 -360 -2 -2 -36 44 -75 103 -218 328 -548 644 -895
862 -219 137 -507 267 -765 345 -65 20 -118 37 -120 39 -7 7 143 436 154 436
6 0 76 -33 155 -73z m-4827 -3112 c248 -52 461 -259 525 -511 24 -94 26 -241
4 -334 -20 -89 -82 -212 -144 -287 -82 -101 -225 -192 -360 -229 -88 -24 -262
-24 -350 -1 -198 53 -365 190 -454 371 -52 106 -70 184 -70 306 0 126 18 202
75 320 56 115 187 248 300 303 149 73 316 95 474 62z"/>
<path d="M2097 5143 c-4 -3 -7 -105 -7 -225 l0 -218 355 0 355 0 -2 223 -3
222 -346 3 c-190 1 -348 -1 -352 -5z"/>
<path d="M11790 4790 l-345 -117 -3 -91 -3 -92 -70 0 -69 0 2 -207 3 -208 68
-3 67 -3 0 -417 0 -417 213 -213 212 -212 373 0 372 0 0 210 0 210 -235 0
-235 0 -2 839 -3 839 -345 -118z"/>
<path d="M187 4302 l-187 -187 0 -161 0 -161 185 -177 184 -176 376 0 375 0 0
-315 0 -315 153 0 152 0 198 198 197 197 0 160 0 161 -181 187 -181 187 -399
0 -399 0 0 295 0 295 -143 0 -142 0 -188 -188z"/>
<path d="M770 4335 l0 -155 175 0 175 0 0 -65 0 -65 320 0 320 0 0 98 0 97
-123 123 -122 122 -373 0 -372 0 0 -155z"/>
<path d="M2090 3650 l0 -840 355 0 355 0 0 840 0 840 -355 0 -355 0 0 -840z"/>
<path d="M3322 4277 l-212 -212 0 -415 0 -415 213 -213 212 -212 190 0 190 0
103 103 102 102 0 93 0 92 -155 0 -155 0 0 645 0 645 -138 0 -137 0 -213 -213z"/>
<path d="M3920 4280 l0 -210 155 0 155 0 0 -740 0 -740 -425 0 -425 0 0 -78 0
-77 108 -108 107 -107 461 0 460 0 207 214 207 214 0 714 0 713 -208 208 -207
207 -298 0 -297 0 0 -210z"/>
<path d="M5270 3650 l0 -840 350 0 350 0 0 840 0 840 -350 0 -350 0 0 -840z"/>
<path d="M6192 4377 l-112 -112 0 -98 0 -97 145 0 145 0 0 -630 0 -630 350 0
350 0 0 728 0 727 -113 113 -112 112 -270 0 -270 0 -113 -113z"/>
<path d="M7286 4378 l-106 -112 0 -98 0 -98 140 0 140 0 0 -630 0 -630 350 0
350 0 0 669 0 670 -166 170 -166 171 -218 0 -218 0 -106 -112z"/>
<path d="M8697 4382 l-107 -107 0 -103 0 -102 500 0 500 0 0 -630 0 -630 340
0 340 0 0 632 0 633 -207 207 -208 208 -525 0 -525 0 -108 -108z"/>
<path d="M12250 4280 l0 -210 190 0 190 0 0 210 0 210 -190 0 -190 0 0 -210z"/>
<path d="M13067 4282 l-207 -207 0 -425 0 -425 207 -207 208 -208 142 0 143 0
0 840 0 840 -143 0 -142 0 -208 -208z"/>
<path d="M13670 4280 l0 -210 185 0 185 0 0 -145 0 -145 -185 0 -185 0 0 -150
0 -150 505 0 505 0 0 298 0 297 -208 208 -207 207 -298 0 -297 0 0 -210z"/>
<path d="M15197 4382 l-107 -107 0 -103 0 -102 500 0 500 0 0 -630 0 -630 340
0 340 0 0 632 0 633 -207 207 -208 208 -525 0 -525 0 -108 -108z"/>
<path d="M17110 3650 l0 -840 350 0 350 0 0 840 0 840 -350 0 -350 0 0 -840z"/>
<path d="M18028 4376 l-108 -112 0 -97 0 -97 145 0 145 0 0 -630 0 -630 350 0
350 0 0 728 0 727 -113 113 -112 112 -275 -1 -275 -2 -107 -111z"/>
<path d="M19126 4379 l-106 -110 0 -100 0 -99 140 0 140 0 0 -630 0 -630 350
0 350 0 0 666 0 666 -166 174 -167 174 -217 0 -218 0 -106 -111z"/>
<path d="M8592 3647 l-142 -142 0 -211 0 -210 144 -137 144 -137 264 0 263 0
108 108 107 107 0 88 0 87 -180 0 -180 0 0 150 0 150 180 0 180 0 0 145 0 145
-373 0 -372 0 -143 -143z"/>
<path d="M15092 3647 l-142 -142 0 -212 0 -211 144 -136 143 -136 264 0 264 0
108 108 107 107 0 88 0 87 -180 0 -180 0 0 150 0 150 180 0 180 0 0 145 0 145
-373 0 -372 0 -143 -143z"/>
<path d="M0 3222 l0 -69 143 -169 143 -169 362 -3 362 -2 0 155 0 155 -155 0
-155 0 0 85 0 85 -350 0 -350 0 0 -68z"/>
<path d="M13670 3005 l0 -195 363 0 362 0 108 108 107 107 0 88 0 87 -470 0
-470 0 0 -195z"/>
<path d="M6220 775 l0 -755 85 0 85 0 0 368 0 369 47 33 c76 55 148 79 231 80
85 0 128 -15 164 -58 42 -50 48 -107 48 -462 l0 -330 85 0 85 0 0 323 c0 352
-7 432 -46 518 -40 89 -104 137 -213 160 -119 25 -244 -3 -348 -77 l-48 -34
-3 310 -2 310 -85 0 -85 0 0 -755z"/>
<path d="M8020 1226 l0 -304 -57 37 c-108 70 -193 91 -303 72 -232 -41 -360
-225 -360 -516 0 -176 47 -313 137 -403 79 -79 144 -105 273 -110 119 -4 176
11 262 74 l48 34 0 -45 0 -45 85 0 85 0 0 755 0 755 -85 0 -85 0 0 -304z
m-152 -366 c31 -11 78 -35 104 -53 l48 -32 0 -260 0 -261 -57 -37 c-149 -98
-332 -86 -419 28 -68 90 -90 307 -45 448 50 156 203 225 369 167z"/>
<path d="M11305 1401 c-91 -23 -163 -81 -202 -159 -24 -48 -28 -69 -28 -137 1
-98 20 -159 80 -250 25 -37 45 -71 45 -74 0 -3 -22 -21 -49 -39 -76 -52 -162
-142 -188 -200 -33 -71 -41 -176 -19 -262 47 -184 193 -280 425 -280 150 0
259 36 375 125 l47 36 27 -19 c91 -64 215 -108 333 -118 l79 -7 0 80 0 81 -72
4 c-59 3 -88 10 -148 40 -120 57 -117 52 -66 130 81 126 141 311 153 471 l6
87 -87 0 c-53 0 -86 -4 -86 -10 0 -55 -26 -219 -46 -287 -27 -95 -88 -223
-106 -223 -22 0 -338 335 -338 358 0 5 31 30 69 56 140 95 211 200 211 312 0
119 -55 210 -157 260 -46 23 -72 28 -142 31 -47 1 -99 -1 -116 -6z m201 -172
c76 -72 45 -210 -68 -296 -81 -62 -97 -68 -114 -46 -83 108 -98 278 -30 342
46 44 165 44 212 0z m36 -840 l127 -136 -27 -20 c-78 -58 -165 -85 -267 -85
-120 1 -200 45 -247 136 -27 53 -27 159 0 212 20 38 93 115 142 148 l25 17 60
-68 c33 -37 117 -129 187 -204z"/>
<path d="M3820 694 l0 -676 308 5 c235 4 322 9 370 21 161 41 236 118 263 270
28 164 -39 307 -173 369 -26 12 -48 24 -48 27 1 3 24 21 52 40 34 23 61 53 82
90 30 53 31 59 31 181 0 120 -1 128 -30 184 -35 69 -92 116 -168 142 -44 14
-102 18 -369 21 l-318 3 0 -677z m610 514 c52 -22 87 -69 100 -135 23 -108 -9
-212 -78 -257 -52 -34 -131 -46 -309 -46 l-153 0 0 231 0 231 203 -4 c154 -3
210 -8 237 -20z m18 -603 c97 -33 142 -102 142 -216 -1 -96 -54 -173 -138
-200 -22 -7 -125 -14 -249 -16 l-213 -5 0 232 0 232 203 -4 c159 -4 213 -9
255 -23z"/>
<path d="M12870 695 l0 -675 85 0 85 0 0 675 0 675 -85 0 -85 0 0 -675z"/>
<path d="M5370 1029 c-239 -40 -392 -263 -377 -549 12 -221 115 -383 287 -452
48 -20 73 -23 200 -23 142 0 146 1 212 32 171 81 268 253 268 478 0 222 -91
391 -253 470 -104 50 -212 64 -337 44z m235 -173 c58 -26 119 -90 146 -150 48
-110 45 -287 -6 -391 -59 -118 -139 -167 -275 -166 -124 0 -213 58 -267 175
-26 57 -28 69 -28 191 0 121 2 134 28 190 41 88 98 142 177 166 14 4 59 8 100
8 59 1 86 -4 125 -23z"/>
<path d="M9818 1011 c-63 -20 -137 -61 -158 -85 -22 -27 -30 -18 -30 34 l0 50
-85 0 -85 0 2 -492 3 -493 83 -3 82 -3 0 365 0 365 38 31 c67 55 138 83 229
88 105 6 162 -18 196 -82 21 -40 22 -53 27 -401 l5 -360 83 -3 82 -3 0 343 c0
374 -8 443 -55 523 -53 92 -135 134 -275 141 -65 3 -98 0 -142 -15z"/>
<path d="M15700 1008 c-36 -13 -89 -40 -118 -61 -29 -20 -54 -37 -57 -37 -3 0
-5 23 -5 50 l0 50 -80 0 -80 0 0 -495 0 -495 80 0 80 0 0 364 0 364 31 27 c18
14 59 40 93 57 51 26 75 32 146 35 74 4 91 1 129 -19 30 -15 52 -36 65 -63 20
-38 21 -62 26 -400 l5 -360 83 -3 82 -3 0 348 c0 429 -9 483 -98 576 -76 79
-255 109 -382 65z"/>
<path d="M8658 1004 c-5 -4 -8 -38 -8 -76 l0 -68 90 0 c190 0 249 -35 270
-160 7 -39 10 -73 8 -76 -3 -2 -31 6 -64 19 -49 18 -79 22 -179 22 -108 0
-125 -3 -175 -26 -77 -36 -124 -80 -157 -147 -25 -51 -28 -68 -28 -157 0 -89
3 -106 28 -157 53 -108 170 -178 297 -178 70 0 168 34 228 80 l52 40 0 -50 0
-50 85 0 85 0 0 313 c0 431 -12 499 -96 584 -68 68 -118 84 -294 90 -74 3
-138 2 -142 -3z m315 -500 l47 -18 0 -116 0 -115 -48 -32 c-97 -66 -198 -91
-273 -68 -72 23 -119 93 -119 180 0 89 44 153 125 183 44 17 210 8 268 -14z"/>
<path d="M13270 1003 c0 -4 83 -228 184 -498 l184 -490 99 -3 98 -3 183 493
c100 271 182 496 182 501 0 4 -38 7 -84 7 l-83 0 -106 -292 c-58 -161 -123
-340 -143 -398 -20 -58 -40 -108 -43 -112 -4 -4 -72 174 -153 395 l-146 402
-86 3 c-47 1 -86 -1 -86 -5z"/>
<path d="M14550 938 l0 -75 113 -5 c173 -6 218 -37 239 -161 6 -37 9 -69 6
-72 -2 -3 -31 5 -64 18 -49 18 -79 22 -179 22 -108 0 -125 -3 -175 -26 -31
-14 -72 -41 -93 -58 -113 -100 -128 -320 -31 -453 109 -151 357 -170 507 -38
l37 32 0 -51 0 -51 85 0 85 0 0 318 c0 424 -11 491 -87 573 -67 72 -123 90
-300 97 l-143 5 0 -75z m294 -428 l66 -21 0 -115 c0 -135 2 -132 -116 -190
-57 -28 -84 -35 -132 -35 -96 -1 -151 33 -178 108 -39 110 10 229 107 260 58
19 180 15 253 -7z"/>
</g>
</svg>
